<?xml version="1.0" standalone="no"?>
<!DOCTYPE svg PUBLIC "-//W3C//DTD SVG 1.1//EN" "http://www.w3.org/Graphics/SVG/1.1/DTD/svg11.dtd" >
<svg xmlns="http://www.w3.org/2000/svg">
<metadata>Generated by IcoMoon</metadata>
<defs>
<font id="icomoon" horiz-adv-x="1024">
<font-face units-per-em="1024" ascent="960" descent="-64" />
<missing-glyph horiz-adv-x="1024" />
<glyph unicode="&#x20;" horiz-adv-x="512" d="" />
<glyph unicode="&#xe900;" glyph-name="ic_active" d="M514.667-26.667c-262.208 0-475.563 213.312-475.563 475.563 0 262.229 213.333 475.563 475.563 475.563 262.251 0 475.563-213.333 475.563-475.563 0-262.251-213.312-475.563-475.563-475.563zM514.667 874.197c-234.496 0-425.301-190.805-425.301-425.323 0-234.539 190.805-425.301 425.301-425.301 234.539 0 425.323 190.763 425.323 425.323 0 234.496-190.784 425.301-425.323 425.301zM749.461 571.221l-296.896-296.917c-2.624-2.624-6.848-2.624-9.451 0l-168.576 168.597c-2.624 2.624-2.624 6.848 0 9.451l40.96 40.96c2.603 2.624 6.848 2.624 9.451 0l122.923-122.923 251.2 251.243c2.624 2.624 6.848 2.624 9.493 0l40.896-40.96c2.667-2.56 2.667-6.827 0-9.451v0z" />
<glyph unicode="&#xe901;" glyph-name="ic_alert" d="M512-59.883c56.107 0 101.568 45.461 101.568 101.589h-203.136c0-56.128 45.44-101.589 101.568-101.589zM842.112 244.864v279.296c0 156.181-108.416 286.464-253.931 320.981v34.539c0 42.176-34.027 76.181-76.16 76.181-42.176 0-76.181-34.027-76.181-76.181v-34.539c-145.536-34.517-253.952-164.779-253.952-320.981v-279.317l-101.568-101.589v-50.795h863.381v50.795l-101.589 101.611z" />
<glyph unicode="&#xe902;" glyph-name="ic_calendar" d="M378.773 397.248c0 12.288-9.963 22.251-22.293 22.251h-77.781c-12.288 0-22.272-9.963-22.272-22.251v-77.781c0-12.288 9.984-22.293 22.272-22.293h77.781c12.331 0 22.293 10.005 22.293 22.293v77.781zM573.184 397.248c0 12.288-10.005 22.251-22.293 22.251h-77.803c-12.288 0-22.272-9.963-22.272-22.251v-77.781c0-12.288 9.984-22.293 22.272-22.293h77.803c12.288 0 22.293 10.005 22.293 22.293v77.781zM767.552 397.248c0 12.288-9.963 22.251-22.272 22.251h-77.76c-12.309 0-22.293-9.963-22.293-22.251v-77.781c0-12.288 9.984-22.293 22.293-22.293h77.781c12.309 0 22.272 10.005 22.272 22.293v77.781zM378.773 202.837c0 12.331-9.963 22.293-22.293 22.293h-77.781c-12.288 0-22.272-9.963-22.272-22.293v-77.76c0-12.331 9.984-22.293 22.272-22.293h77.781c12.331 0 22.293 9.963 22.293 22.293v77.76zM573.184 202.837c0 12.331-10.005 22.293-22.293 22.293h-77.803c-12.288 0-22.272-9.963-22.272-22.293v-77.76c0-12.331 9.984-22.293 22.272-22.293h77.803c12.288 0 22.293 9.963 22.293 22.293v77.76zM767.552 202.837c0 12.331-9.963 22.293-22.251 22.293h-77.781c-12.309 0-22.293-9.963-22.293-22.293v-77.76c0-12.331 9.984-22.293 22.293-22.293h77.781c12.288 0 22.251 9.963 22.251 22.293v77.76zM878.165 88.875c0-20.992-17.024-38.037-38.059-38.037h-657.899c-21.013 0-38.059 17.045-38.059 38.037v359.616c0 21.013 17.024 38.059 38.059 38.059h657.899c21.035 0 38.059-17.045 38.059-38.059v-359.616zM906.645 829.675v-118.784c0-53.696-43.563-96.96-97.237-96.96h-61.355c-53.696 0-97.813 43.264-97.813 96.96v119.211h-276.48v-119.232c0-53.696-44.139-96.96-97.813-96.96h-61.333c-53.696 0-97.259 43.264-97.259 96.96v118.805c-46.933-1.408-85.483-40.235-85.483-87.957v-696.171c0-48.619 39.424-88.533 88.021-88.533h784.192c48.533 0 88.043 40 88.043 88.533v696.171c0 47.701-38.571 86.528-85.483 87.957zM214.357 677.611h60.672c18.432 0 33.344 14.891 33.344 33.323v194.752c0 18.411-14.933 33.323-33.344 33.323h-60.672c-18.411 0-33.344-14.912-33.344-33.323v-194.752c0-18.432 14.955-33.323 33.344-33.323zM747.285 677.611h60.693c18.389 0 33.323 14.891 33.323 33.323v194.752c0 18.411-14.933 33.323-33.323 33.323h-60.693c-18.389 0-33.344-14.912-33.344-33.323v-194.752c0-18.432 14.955-33.323 33.344-33.323z" />
<glyph unicode="&#xe903;" glyph-name="ic_cancel" d="M507.989-29.995c-267.968 0-485.995 218.027-485.995 485.995 0 267.989 218.027 485.995 485.995 485.995 267.989 0 485.995-218.005 485.995-485.995 0.021-267.989-217.984-485.995-485.995-485.995zM507.989 890.645c-239.659 0-434.645-194.987-434.645-434.645 0-239.68 194.987-434.645 434.645-434.645 239.68 0 434.645 194.965 434.645 434.645 0.021 239.659-194.944 434.645-434.645 434.645zM858.688 139.157l-656.683 656.704c-5.931 5.931-15.552 5.931-21.483 0-2.987-2.944-4.459-6.848-4.459-10.731-3.883 0-7.765-1.472-10.731-4.437-5.931-5.931-5.931-15.552 0-21.461l656.704-656.704c5.931-5.931 15.552-5.931 21.483 0 2.965 2.965 4.437 6.848 4.437 10.752 3.904 0 7.787 1.472 10.752 4.437 5.909 5.909 5.909 15.509-0.021 21.44z" />
<glyph unicode="&#xe904;" glyph-name="ic_chart" d="M101.333 917.333c-21.099 0-37.589 0-58.667 0 0-312.491 0-625.003 0-938.667 313.28 0 626.005 0 938.667 0 0 19.541 0 39.083 0 58.624-293.077 0-586.219 0-879.36 0 0 39.701-0.64 880.043-0.64 880.043zM786.965 261.205c12.843 23.296 25.301 45.824 38.123 69.077-17.003 9.365-33.451 18.496-51.243 28.373 50.539 30.549 99.925 60.459 150.827 91.264 1.301-59.264 2.496-116.971 3.755-176.363-17.792 9.707-34.24 18.709-51.328 28.032-23.040-41.792-45.824-83.157-69.205-125.589-166.549 111.040-332.757 221.824-499.648 333.077-22.315-26.795-44.352-53.227-66.965-80.384-15.339 12.821-30.229 25.259-45.525 38.037 33.899 40.661 67.264 80.704 101.035 121.195 163.456-108.928 326.421-217.557 490.176-326.72zM517.781 525.867c-9.408-11.221-18.176-21.696-27.221-32.512-16.512 11.008-32.469 21.632-49.515 32.981 21.76 26.176 43.136 51.861 65.216 78.379 57.259-38.165 114.304-76.139 171.797-114.453 47.872 83.797 95.339 166.912 143.296 250.859-16.875 9.685-33.088 19.029-50.752 29.163 51.2 29.867 101.077 58.965 152.256 88.811 0-59.157 0-116.651 0-175.851-16.875 9.621-32.832 18.709-49.92 28.437-58.368-102.080-116.459-203.648-174.955-305.92-60.117 40.064-119.744 79.808-180.203 120.107zM415.424 403.115c-58.261-69.909-115.883-139.115-174.144-209.088-15.339 12.843-30.208 25.259-45.589 38.080 56.96 68.331 113.408 136 170.155 204.032 16.619-11.051 32.597-21.675 49.579-33.024z" />
<glyph unicode="&#xe905;" glyph-name="ic_check" d="M1014.635 708.864l-628.437-628.437c-5.547-5.568-14.528-5.568-20.011 0l-356.821 356.843c-5.547 5.525-5.547 14.485 0 19.989l86.699 86.699c5.483 5.568 14.464 5.568 20.011 0l260.117-260.117 531.776 531.733c5.504 5.568 14.464 5.568 20.011 0l86.656-86.699c5.547-5.504 5.547-14.485 0-20.011v0z" />
<glyph unicode="&#xe906;" glyph-name="ic_cloud" d="M31.253 321.813c2.517 10.859 4.416 21.888 7.637 32.512 21.099 69.675 65.856 117.269 134.4 142.059 6.4 2.304 8.299 5.099 8.32 11.819 0.085 109.397 82.987 200.064 192.235 209.067 19.691 1.643 39.787-2.176 59.755-2.987 3.307-0.128 7.979 1.173 9.92 3.541 43.499 52.907 99.307 82.496 167.296 89.835 116.608 12.587 232.448-71.936 256.256-186.923 5.376-25.963 7.339-52.032 4.139-78.315-0.704-5.803 2.155-7.616 5.973-10.005 56-34.773 92.373-84.096 108.885-147.968 2.624-10.133 4.48-20.48 6.677-30.72 0-17.515 0-35.051 0-52.587-1.216-5.675-2.667-11.307-3.627-17.024-18.496-110.677-120.363-197.035-232.384-197.035-171.797-0.021-343.595 0-515.413 0-94.869 0-177.472 62.827-202.667 154.283-2.859 10.411-4.949 21.056-7.424 31.595 0.021 16.32 0.021 32.576 0.021 48.853zM254.443 446.4c-4.885 0.363-8.896 0.853-12.885 0.896-102.421 1.365-176.341-103.552-141.163-200.32 22.635-62.208 78.251-99.755 148.416-99.797 165.248-0.085 330.475-0.043 495.701 0.043 9.365 0 18.795 0.533 28.075 1.515 72.811 7.701 134.037 60.224 153.579 131.477 19.264 70.379-6.101 146.453-65.173 189.397-18.432 13.376-39.915 22.592-60.309 33.899 38.528 102.421-20.672 198.848-100.48 231.104-87.147 35.2-191.829-1.237-234.475-96.96-28.416 15.445-58.517 22.912-91.051 19.008-32.427-3.904-61.227-16.256-84.48-38.997-49.557-48.448-60.032-105.856-35.755-171.264zM452.245 387.84c-40.576 0-79.509 0-117.845 0 59.477 59.456 118.869 118.848 177.557 177.536 58.496-58.496 117.909-117.931 177.387-177.429-38.037 0-77.099 0-116.885 0 0-60.459 0-119.787 0-179.904-40.171 0-79.701 0-120.235 0 0.021 59.221 0.021 118.805 0.021 179.797z" />
<glyph unicode="&#xe907;" glyph-name="ic_contacto" d="M21.12 666.667c14.507 18.688 24.256 19.947 44.053 5.739 75.819-54.315 151.637-108.587 227.413-162.923 18.56-13.312 20.032-25.387 5.291-43.072-77.696-93.291-155.413-186.539-233.131-279.744-14.421-17.323-30.613-16.363-43.627 2.517 0 159.147 0 318.315 0 477.483zM1002.88 191.104c-14.379-20.139-29.397-20.651-45.461-1.323-75.989 91.285-151.936 182.656-227.904 273.984-1.237 1.472-2.453 2.944-3.669 4.459-12.821 15.829-11.115 28.352 5.632 40.384 47.701 34.261 95.488 68.48 143.211 102.72 28.544 20.459 57.067 40.96 85.589 61.44 18.752 13.44 28.565 12.032 42.603-6.101 0-158.528 0-317.056 0-475.563zM512.704 330.773c26.795 20.437 53.397 40.747 80 61.035 20.352 15.531 40.555 31.083 60.992 46.528 14.933 11.328 26.133 10.219 38.144-4.245 74.368-89.408 148.629-178.944 222.955-268.395 6.933-8.341 9.6-17.301 4.48-27.392-4.907-9.685-13.227-12.565-23.787-12.544-255.637 0.149-511.317 0.149-766.976 0-10.347 0-18.112 3.648-22.656 12.885-5.141 10.56-1.6 19.605 5.483 28.16 51.115 61.376 102.123 122.859 153.173 184.32 22.869 27.499 45.717 55.040 68.629 82.56 12.096 14.528 23.808 15.872 38.891 4.373 44.203-33.728 88.341-67.52 132.523-101.248 2.56-1.941 5.099-3.776 8.149-6.037zM926.955 770.219c20.309 0 32.939-15.552 25.323-32.128-2.368-5.163-7.275-9.707-11.989-13.205-101.76-75.093-203.669-150.016-305.515-224.939-34.411-25.365-68.885-50.731-103.381-76.096-14.869-10.923-22.571-10.987-37.077-0.299-136.32 100.309-272.619 200.64-408.981 300.885-9.365 6.912-16.149 14.699-13.803 27.179 2.219 11.648 11.861 18.56 25.451 18.56 73.451 0.043 691.947 0.043 829.973 0.043z" />
<glyph unicode="&#xe908;" glyph-name="ic_credit" d="M507.563-58.667c-279.381 0-506.667 227.285-506.667 506.667s227.285 506.667 506.667 506.667c279.381 0 506.667-227.285 506.667-506.667s-227.285-506.667-506.667-506.667zM507.563 929.792c-265.664 0-481.792-216.149-481.792-481.792s216.128-481.771 481.771-481.771c265.664 0 481.771 216.128 481.771 481.771s-216.107 481.771-481.749 481.792zM192.512 512h63.488v-298.667h170.667v213.333h149.333v-213.333h170.667v298.667h74.219l-314.176 282.112z" />
<glyph unicode="&#xe909;" glyph-name="ic_delete" d="M727.232 125.419c0-21.973-17.28-39.211-39.211-39.211-21.973 0-39.211 17.237-39.211 39.211v302.592c0 21.931 17.237 39.211 39.211 39.211 21.931 0 39.211-17.28 39.211-39.211v-302.592zM551.552 125.419c0-21.973-17.28-39.211-39.189-39.211s-39.211 17.237-39.211 39.211v302.592c0 21.931 17.28 39.211 39.211 39.211s39.189-17.28 39.189-39.211v-302.592zM375.979 125.419c0-21.973-17.28-39.211-39.211-39.211-21.973 0-39.189 17.237-39.189 39.211v302.592c0 21.931 17.216 39.211 39.189 39.211 21.931 0 39.211-17.28 39.211-39.211v-302.592zM209.749 584h-1.579v-573.867c0-25.856 21.163-47.061 47.040-47.061h513.515c25.877 0 47.061 21.205 47.061 47.061 0 0-0.811 573.867-1.579 573.867h-604.459zM626.048 776.128h-226.581v51.755c0 13.333 10.987 24.32 24.341 24.32h177.963c13.312 0 24.299-10.987 24.299-24.32v-51.755zM814.976 775.36h-84.672c-13.333 0-23.531 10.197-23.531 23.509v85.44c0 26.688-21.931 48.597-48.597 48.619h-291.627c-26.688 0-48.619-21.931-48.619-48.619v-84.693c0-13.312-10.197-23.509-23.509-23.509h-84.672c-26.688 0-48.619-21.931-48.619-48.619v-16.448c0-26.624 21.163-47.808 47.040-48.619h607.616c25.877 0.811 47.061 21.995 47.061 48.619v16.448c0.747 26.709-21.184 47.872-47.872 47.872z" />
<glyph unicode="&#xe90a;" glyph-name="ic_double-left" d="M946.987 24.021l-436.459 423.936 436.459 423.915-63.765 65.6-504-489.515 504-489.429zM644.779 24.021l-436.459 423.936 436.459 423.915-63.765 65.6-504-489.515 504-489.429z" />
<glyph unicode="&#xe90b;" glyph-name="ic_double-right" d="M77.013 871.979l436.459-423.936-436.459-423.915 63.765-65.6 504 489.515-504 489.429zM379.221 871.979l436.459-423.936-436.459-423.915 63.765-65.6 504 489.515-504 489.429z" />
<glyph unicode="&#xe90c;" glyph-name="ic_download" d="M168.043 139.712c-24.256 0-43.968 19.733-43.968 43.989 0 24.299 19.712 43.989 43.968 43.989 24.277 0 43.989-19.712 43.989-43.989 0-24.256-19.712-43.989-43.989-43.989zM948.139 337.835h-319.531l-42.859-48.704c-18.581-21.184-45.504-33.365-73.685-33.365-28.203 0-55.147 12.181-73.728 33.365l-42.837 48.704h-319.531c-28.48 0-51.605-23.125-51.605-51.605v-204.949c0-28.48 23.125-51.605 51.605-51.605h872.085c28.501 0 51.605 23.125 51.605 51.605v204.949c0.107 28.48-23.040 51.605-51.52 51.605zM457.344 337.835l15.893-18.176c10.347-11.648 24.576-17.536 38.848-17.536 14.229 0 28.459 5.888 38.805 17.536l15.872 18.176 215.488 245.525c29.312 33.323 5.589 85.696-38.805 85.696h-67.733v145.664c0 28.48-23.147 51.605-51.627 51.605h-224.043c-28.501 0-51.627-23.104-51.627-51.605v-145.771h-67.712c-44.395 0-68.032-52.373-38.827-85.696l215.467-245.419z" />
<glyph unicode="&#xe90d;" glyph-name="ic_edit" d="M40.576 4.971c-3.499-15.723 10.709-29.824 26.432-26.005l213.973 51.904-191.915 192-48.491-217.899zM964.715 807.211l-85.632 85.632c-33.109 33.109-86.848 33.109-120.043 0l-82.048-82.027 192.021-192 95.68 95.68c25.685 25.643 25.685 67.051 0.021 92.715zM627.008 760.896l192-192-486.037-486.059-191.915 192.043 485.952 486.016z" />
<glyph unicode="&#xe90e;" d="M106.667 938.667h789.333v-981.333h-789.333v981.333z" />
<glyph unicode="&#xe90f;" d="M170.667 874.667h256v-234.667h-256v234.667z" />
<glyph unicode="&#xe910;" d="M170.667 149.333h106.667v-128h-106.667v128z" />
<glyph unicode="&#xe911;" d="M298.667 64h533.333v-64h-533.333v64z" />
<glyph unicode="&#xe912;" d="M469.333 874.667h362.667v-64h-362.667v64z" />
<glyph unicode="&#xe913;" d="M469.333 789.333h362.667v-42.667h-362.667v42.667z" />
<glyph unicode="&#xe914;" d="M469.333 704h362.667v-64h-362.667v64z" />
<glyph unicode="&#xe915;" glyph-name="ic_ejecutivo" d="M938.667-23.531v166.336c0 0 15.381 80.021-9.621 131.669-11.029 27.904-24.64 54.72-41.728 79.275-15.083 21.739-31.403 42.219-51.669 59.328-5.397 4.565-25.237 24.149-32.256 23.147-11.413-1.621-8.277-15.467-9.856-24.149-7.253-39.979-28.053-78.784-46.613-114.347-46.187-88.555-101.397-172.501-157.632-254.912l-31.595 141.675c0 0-8.768 12.075 4.971 25.856l20.032 22.485c0 0 10.005 14.997 1.664 25.003l-11.52 16.661c0 0-18.219 0.981-18.219 1.429v1.408h-63.957v-1.323c-21.333-0.448-24.597-1.515-24.597-1.515l-16.149-16.661c-8.341-10.005 2.347-25.003 2.347-25.003l20.352-22.485c13.76-13.781 5.184-25.856 5.184-25.856l-31.573-141.675c-56.192 82.411-111.36 166.357-157.547 254.912-18.56 35.563-39.339 74.368-46.613 114.347-1.579 8.683 1.536 22.528-9.877 24.149-7.040 1.003-26.901-18.603-32.32-23.147-20.267-17.109-36.693-37.611-51.776-59.328-17.067-24.533-25.643-51.371-36.651-79.275-25.003-51.648-4.779-131.669-4.779-131.669v-165.995l-17.301 1.856h856.917l-7.616-2.197zM797.76 629.504c0-160.171-126.187-313.344-279.915-313.344s-276.8 153.173-276.8 313.344c0 160.171 124.629 290.005 278.336 290.005 153.749 0 278.379-129.835 278.379-290.005z" />
<glyph unicode="&#xe916;" glyph-name="ic_excel" d="M793.109-2.261c-1.493-1.515-4.245-1.195-7.253-1.195-4.267 0-8.533 0-12.821 0-8.448 0-16.875 0-25.323 0-17.344 0-34.688 0-52.032 0-17.323 0-34.688 0-52.011 0s-34.667 0-52.011 0c-17.323 0-34.688 0-52.011 0s-34.667 0-52.011 0-34.667 0-52.011 0-34.688 0-52.011 0c-17.344 0-34.688 0-52.032 0-17.323 0-34.667 0-52.011 0s-34.667 0-52.011 0-34.667 0-52.011 0c-8.683 0-17.344 0-26.027 0-4.331 0-8.661 0-12.992 0-3.541 0-7.296-0.256-10.517 1.493-1.28 0.683-2.475 1.493-3.52 2.475-1.877 1.771-3.2 3.989-4.032 6.421-1.771 5.205-1.536 10.944-1.536 16.363 0.277 200.747 0.192 401.493 0.192 602.219 0 3.392-0.277 5.227 2.645 8.405 2.923 3.157 5.611 2.347 9.109 2.347 62.891 0 125.803 0 188.693 0 19.541 0 25.301 5.76 25.301 25.131 0 76.053 0 152.107 0 228.181 0 3.285 0.917 5.867 2.048 7.083 1.92 2.069 3.243 2.795 5.888 2.795 143.723 0 287.467 0 431.168 0 10.091-6.187 12.587-15.232 12.544-26.752-0.043-19.669-0.085-39.36-0.128-59.051 0-19.669-0.043-39.36-0.043-59.029-0.021-19.669-0.043-39.36-0.043-59.051s0-39.36 0-59.051 0-39.36 0-59.051c0-19.669 0-39.36 0.021-59.051 0-4.821 0-9.643 0-14.464 0-4.181-0.405-8.448-0.619-12.331-0.107-1.536-0.107-3.691-1.301-4.608-1.451-1.088-3.115-1.451-4.971-1.536-1.963-0.085-5.504-0.021-7.531-0.021-4.885 0-9.835 0-14.72 0-9.835 0-19.669 0-29.525 0-19.669 0-39.339 0-59.029 0-16.128 0-32.277 0-48.384-0.021-78.187-0.043-156.373 0.555-234.517-0.491-46.997-0.64-87.232-40.875-87.851-87.872-1.024-78.72-0.469-157.525-0.235-236.267 0.043-19.413 7.125-36.821 19.029-52.011 19.605-24.981 45.461-36.928 77.291-36.885 126.677 0.149 253.333 0.043 379.989 0.043 3.029 0 7.147 0.405 9.728-1.003 0.96-0.512 1.515-1.152 1.92-2.112 0.896-2.261 0.725-5.355 0.725-7.872 0-2.901 0-5.781 0-8.683 0-5.696 0-11.392 0-17.109 0-11.2 0-22.421 0-33.621-0.064-1.899-0.491-3.072-1.216-3.819zM625.237 448.043c0-0.021 0-0.021 0-0.043-74.645 0-149.291 0.043-223.915 0-34.091-0.021-58.453-24.235-58.496-58.176-0.064-74.027-0.064-148.075 0-222.123 0.043-33.963 24.491-58.283 58.411-58.283 148.693 0 297.365 0 446.037 0.021 35.797 0 59.861 23.936 59.861 59.52 0.043 72.576 0.021 145.173 0 217.728 0 38.144-23.275 61.355-61.525 61.355-73.472 0-146.944 0-220.373 0zM505.195 181.76l-18.517 37.035c-7.595 14.251-12.437 24.875-18.219 36.715h-0.597c-4.245-11.84-9.408-22.464-15.787-36.715l-17.003-37.035h-52.821l59.179 103.509-57.067 101.077h53.12l17.92-37.355c6.080-12.416 10.624-22.464 15.467-33.984h0.619c4.864 13.035 8.811 22.144 13.952 33.984l17.301 37.355h52.821l-57.664-99.861 60.715-104.725h-53.419zM583.509 386.325h46.443v-165.739h81.323v-38.848h-127.765v204.587zM740.117 229.419c12.437-6.379 31.552-12.757 51.285-12.757 21.248 0 32.469 8.811 32.469 22.144 0 12.757-9.707 20.032-34.304 28.843-33.984 11.861-56.149 30.677-56.149 60.395 0 34.923 29.141 61.632 77.397 61.632 23.061 0 40.064-4.864 52.203-10.304l-10.304-37.333c-8.213 3.947-22.763 9.707-42.795 9.707s-29.76-9.109-29.76-19.755c0-13.013 11.541-18.795 37.931-28.821 36.117-13.355 53.12-32.192 53.12-60.992 0-34.304-26.411-63.445-82.581-63.445-23.36 0-46.421 6.059-57.963 12.437l9.451 38.251zM122.176 676.139c-0.021 0.32-0.213 0.619-0.256 0.981-0.555 4.16 5.888 9.792 8.384 12.821 4.181 5.099 8.448 10.155 12.715 15.168 11.392 13.44 22.933 26.773 34.496 40.043 26.475 30.357 53.184 60.523 80.192 90.411 10.347 11.435 20.736 22.848 31.317 34.091 2.88 3.051 11.051 13.952 15.36 13.44 2.965-0.363 0.491-43.925 0.491-48.683 0-17.877 0-35.755 0-53.632 0-21.803 0-43.605 0-65.387 0-10.219 0.043-21.355-0.064-32.341-0.064-7.552-7.083-8.619-13.717-8.683-9.173-0.107-18.347 0-27.52 0-18.347 0-36.693 0-55.040 0-16.064 0-32.171 0-48.235 0-8.064 0-16.128 0-24.171 0-3.861 0-13.781-0.619-13.952 1.771z" />
<glyph unicode="&#xe917;" glyph-name="ic_exclamation" d="M506.091-63.36c-283.264 0-513.749 230.464-513.749 513.771 0 283.285 230.485 513.771 513.749 513.771 283.285 0 513.749-230.464 513.749-513.771s-230.464-513.771-513.749-513.771zM506.091 932.053c-265.557 0-481.621-216.085-481.621-481.664s216.064-481.664 481.621-481.664c265.579 0 481.664 216.085 481.664 481.664s-216.085 481.664-481.664 481.664zM565.355 341.333h-118.549l-32.576 448h183.701zM602.048 188.053c0-53.137-43.076-96.213-96.213-96.213s-96.213 43.076-96.213 96.213c0 53.137 43.076 96.213 96.213 96.213s96.213-43.076 96.213-96.213z" />
<glyph unicode="&#xe918;" glyph-name="ic_filter" d="M448.448-10.283c-4.715 0-9.557 0.917-14.357 2.709-18.155 6.784-27.349 21.333-27.307 43.115 0.128 51.328 0.107 102.635 0.107 153.963 0 74.624-0.021 151.787 0.341 227.712 0.085 23.381-6.677 41.131-21.995 57.579-76.587 82.197-153.941 166.208-228.736 247.467-24.128 26.197-48.256 52.395-72.405 78.592-1.152 1.237-2.325 2.496-3.499 3.733-4.224 4.459-8.619 9.088-12.48 14.571-11.52 16.277-13.504 36.693-5.333 54.635 8.213 18.048 25.088 30.016 45.099 32.043 2.923 0.299 5.952 0.427 9.835 0.427 1.536 0 3.093-0.043 4.629-0.043 1.408-0.021 2.837-0.021 4.245-0.021l580.373-0.021c66.155 0 132.288 0.021 198.464 0.128 27.307 0 46.080-11.413 55.936-33.899 6.677-15.275 9.771-38.549-13.547-62.635-1.088-1.109-2.112-2.261-3.115-3.413-0.811-0.917-1.621-1.835-2.475-2.752-25.067-27.221-50.112-54.443-75.179-81.685-75.755-82.347-154.091-167.531-231.552-250.944-13.077-14.080-18.88-28.992-18.816-48.32l0.107-21.824c0.299-68.544 0.597-139.371-0.64-209.173-0.32-17.216-7.211-36.544-17.643-49.259-27.307-33.259-56.085-66.048-83.925-97.792-11.029-12.544-22.037-25.088-32.96-37.717-9.963-11.392-21.12-17.173-33.173-17.173z" />
<glyph unicode="&#xe919;" glyph-name="ic_helparchivo" d="M768 137.813c0-17.173-13.973-31.147-31.147-31.147h-449.707c-17.173 0-31.147 13.973-31.147 31.147v620.373c0 17.173 13.973 31.147 31.147 31.147h449.707c17.173 0 31.147-13.973 31.147-31.147v-620.373zM746.667 758.187c0 5.419-4.395 9.813-9.813 9.813h-449.707c-5.419 0-9.813-4.395-9.813-9.813v-620.373c0-5.419 4.395-9.813 9.813-9.813h449.707c5.419 0 9.813 4.395 9.813 9.813v620.373zM704 704h-362.667c-5.888 0-10.667-4.779-10.667-10.667s4.779-10.667 10.667-10.667h362.667c5.888 0 10.667 4.779 10.667 10.667s-4.779 10.667-10.667 10.667zM704 597.333h-362.667c-5.888 0-10.667-4.779-10.667-10.667s4.779-10.667 10.667-10.667h362.667c5.888 0 10.667 4.779 10.667 10.667s-4.779 10.667-10.667 10.667zM704 490.667h-362.667c-5.888 0-10.667-4.779-10.667-10.667s4.779-10.667 10.667-10.667h362.667c5.888 0 10.667 4.779 10.667 10.667s-4.779 10.667-10.667 10.667zM704 384h-362.667c-5.888 0-10.667-4.779-10.667-10.667s4.779-10.667 10.667-10.667h362.667c5.888 0 10.667 4.779 10.667 10.667s-4.779 10.667-10.667 10.667zM704 277.333h-362.667c-5.888 0-10.667-4.779-10.667-10.667s4.779-10.667 10.667-10.667h362.667c5.888 0 10.667 4.779 10.667 10.667s-4.779 10.667-10.667 10.667z" />
<glyph unicode="&#xe91a;" glyph-name="ic_helpcontrato" d="M601.749 789.333h-313.749c-17.643 0-32-14.357-32-32v-618.667c0-17.643 14.357-32 32-32h448c17.643 0 32 14.357 32 32v484.416l-166.251 166.251zM746.667 614.251v-17.195l-120.043 0.427c-7.211 0.341-28.16 17.152-29.504 23.275l0.491 142.549 149.056-149.056zM736 128h-448c-5.867 0-10.667 4.8-10.667 10.667v618.667c0 5.867 4.8 10.667 10.667 10.667h288.32l-0.512-147.157c-0.064-19.115 34.752-44.629 50.731-44.693l120.128-0.427v-437.056c0-5.867-4.8-10.667-10.667-10.667zM341.333 618.667h170.667c5.888 0 10.667 4.779 10.667 10.667s-4.779 10.667-10.667 10.667h-170.667c-5.888 0-10.667-4.779-10.667-10.667s4.779-10.667 10.667-10.667zM512 192h-170.667c-5.888 0-10.667-4.779-10.667-10.667s4.779-10.667 10.667-10.667h170.667c5.888 0 10.667 4.779 10.667 10.667s-4.779 10.667-10.667 10.667zM704 512h-362.667c-5.888 0-10.667-4.779-10.667-10.667s4.779-10.667 10.667-10.667h362.667c5.888 0 10.667 4.779 10.667 10.667s-4.779 10.667-10.667 10.667zM704 405.333h-362.667c-5.888 0-10.667-4.779-10.667-10.667s4.779-10.667 10.667-10.667h362.667c5.888 0 10.667 4.779 10.667 10.667s-4.779 10.667-10.667 10.667zM704 298.667h-362.667c-5.888 0-10.667-4.779-10.667-10.667s4.779-10.667 10.667-10.667h362.667c5.888 0 10.667 4.779 10.667 10.667s-4.779 10.667-10.667 10.667z" />
<glyph unicode="&#xe91b;" glyph-name="ic_helpguia" d="M512 106.667h-224.853c-17.173 0-31.147 23.083-31.147 40.256v620.373c0 17.152 13.973 22.037 31.147 22.037h449.707c17.173 0 31.147-4.885 31.147-22.037v-383.296h-21.333v383.296c0 5.419-4.395 0.704-9.813 0.704h-449.707c-5.419 0-9.813 4.715-9.813-0.704v-620.373c0-5.419 4.395-18.923 9.813-18.923h224.853v-21.333zM704 704h-362.667c-5.888 0-10.667-4.779-10.667-10.667s4.779-10.667 10.667-10.667h362.667c5.888 0 10.667 4.779 10.667 10.667s-4.779 10.667-10.667 10.667zM704 597.333h-362.667c-5.888 0-10.667-4.779-10.667-10.667s4.779-10.667 10.667-10.667h362.667c5.888 0 10.667 4.779 10.667 10.667s-4.779 10.667-10.667 10.667zM704 490.667h-362.667c-5.888 0-10.667-4.779-10.667-10.667s4.779-10.667 10.667-10.667h362.667c5.888 0 10.667 4.779 10.667 10.667s-4.779 10.667-10.667 10.667zM659.819 199.723c-67.285-47.488-147.904-26.496-187.349 27.989-39.936 55.147-31.829 130.112 19.307 176.725 48.875 44.544 125.781 44.267 175.808-0.213 49.664-44.139 63.851-126.507 9.579-188.715 1.557-1.664 3.115-3.456 4.779-5.12 29.589-29.611 59.264-59.115 88.64-88.917 3.136-3.179 5.973-8.064 6.336-12.352 0.747-9.045-9.493-14.571-17.323-9.877-2.411 1.451-4.459 3.627-6.485 5.653-29.632 29.568-59.221 59.157-88.768 88.811-1.685 1.728-2.923 3.904-4.523 6.016zM471.403 305.941c-0.171-59.456 48.085-108.501 106.88-108.651 60.736-0.149 109.461 47.893 109.589 108.032 0.128 59.221-48.576 108.139-107.989 108.416-59.328 0.299-108.331-48.384-108.48-107.797z" />
<glyph unicode="&#xe91c;" glyph-name="ic_helpinstructivo" d="M512.704 766.443c180.416-1.088 318.784-140.373 317.76-319.787-1.088-180.523-141.909-318.592-323.499-317.077-176.917 1.408-314.901 143.851-313.429 323.563 1.493 175.616 142.848 314.389 319.168 313.301zM806.955 447.893c-0.043 160.341-134.165 294.592-294.784 295.104-158.315 0.469-294.635-134.763-294.656-292.395-0.021-162.624 133.845-297.301 295.445-297.152 159.168 0.149 294.037 135.189 293.995 294.443zM633.216 546.539c-0.299-36.779-14.827-64.576-36.416-89.259-7.552-8.683-15.744-16.917-24.491-24.405-31.573-26.901-48.448-60.459-48.107-102.251 0.021-0.875-0.021-1.792-0.107-2.667-1.344-13.76-9.856-21.781-22.293-21.141-11.733 0.597-20.459 9.387-20.075 22.123 1.152 39.403 9.301 76.736 36.16 107.349 11.648 13.333 24.896 25.28 36.608 38.571 10.176 11.563 21.504 22.997 28.288 36.459 24.256 48.021-5.163 97.003-58.667 99.776-57.493 2.965-87.979-26.155-90.453-86.293-0.875-22.059-7.68-31.424-22.208-30.677-14.997 0.725-21.995 12.48-20.053 34.091 4.715 52.693 25.728 95.083 77.12 116.245 69.781 28.757 148.117-10.667 162.773-81.131 1.28-6.421 1.493-13.12 1.92-16.789zM523.819 267.627c-0.149-15.637-8.149-24.875-21.419-24.661-13.632 0.235-21.568 10.155-21.227 26.539 0.32 15.296 8.789 24.981 21.781 24.853 13.312-0.107 21.013-9.963 20.864-26.731z" />
<glyph unicode="&#xe91d;" glyph-name="ic_helpmacro" d="M682.667 384v374.187c0 5.419-1.323 9.813-6.72 9.813h-449.707c-5.419 0-12.907-4.395-12.907-9.813v-620.373c0-5.419 7.488-9.813 12.885-9.813h449.707c5.419 0 6.741 4.395 6.741 9.813v75.52h21.333v-75.52c0-17.173-10.901-31.147-28.053-31.147h-449.707c-17.173 0-34.24 13.973-34.24 31.147v620.373c0 17.173 17.067 31.147 34.219 31.147h449.707c17.173 0 28.075-13.973 28.075-31.147v-374.187h-21.333zM643.093 704h-362.667c-5.888 0-10.667-4.779-10.667-10.667s4.779-10.667 10.667-10.667h362.667c5.888 0 10.667 4.779 10.667 10.667s-4.779 10.667-10.667 10.667zM643.093 597.333h-362.667c-5.888 0-10.667-4.779-10.667-10.667s4.779-10.667 10.667-10.667h362.667c5.888 0 10.667 4.779 10.667 10.667s-4.779 10.667-10.667 10.667zM643.093 490.667h-362.667c-5.888 0-10.667-4.779-10.667-10.667s4.779-10.667 10.667-10.667h362.667c5.888 0 10.667 4.779 10.667 10.667s-4.779 10.667-10.667 10.667zM552.043 184.704c4.949 4.864 5.056 11.925 0.213 16.875l-81.088 81.835 345.173 0.256c6.955 0 12.587 5.632 12.587 12.587 0 6.933-5.632 12.565-12.587 12.544l-345.173-0.256 81.067 83.733c4.864 4.971 4.779 13.376-0.213 18.219-4.971 4.843-12.928 4.949-17.813 0l-101.973-104.085c-0.085-0.085-0.128-0.128-0.213-0.213-0.405-0.448-0.747-0.853-1.088-1.323-0.107-0.149-1.707-0.277-1.792-0.427-0.384-0.576-2.475-1.173-2.475-1.813 0-0.043 0-0.064 0-0.064 0-0.576 1.088-1.152 0.939-1.707-0.043-0.235-0.427-0.448-0.448-0.683-0.149-0.725-0.491-1.472-0.491-2.219 0-0.064 0-0.128 0-0.213v0 0c0-0.085 0-0.149 0-0.213 0-0.747 1.088-1.493 1.237-2.219 0.043-0.213 0.64-0.448 0.704-0.661 0.149-0.555 0.555-1.152 0.768-1.685 0-0.021 0.128-0.064 0.128-0.064 0.299-0.661 0.683-1.301 1.067-1.856 0.085-0.171 0.235-0.299 0.341-0.448 0.341-0.448 0.725-0.917 1.109-1.323 0.085-0.085 0.149-0.192 0.235-0.299l101.995-104.043c4.843-4.971 12.821-5.056 17.792-0.235z" />
<glyph unicode="&#xe91e;" glyph-name="ic_helpmanual" d="M805.269 637.205c-3.264 0-6.507 0-9.749 0-125.227 0-250.432 0.021-375.616-0.128-6.528 0-13.397-0.597-19.541-2.645-17.771-5.909-29.099-24.853-26.453-42.688 2.965-19.819 17.963-34.176 37.333-35.349 6.613-0.405 13.248-0.213 19.883-0.213 114.24 0 228.501 0 342.72 0 21.803-0.021 32.171-10.475 32.171-32.491 0.021-131.584 0.021-263.168 0-394.773 0-21.611-10.304-32.128-31.68-32.128-110.165-0.021-220.331-0.107-330.475 0.021-48.725 0.043-86.613 31.040-95.637 78.037-1.131 5.952-1.429 12.16-1.429 18.24-0.064 133.632-0.107 267.243-0.021 400.875 0.021 35.456 21.611 62.293 55.189 68.928 4.203 0.832 8.619 1.045 12.907 1.045 120.619 0.064 260.693 0.085 381.333 0.043 24.213 0.021 16.555-26.773 9.067-26.773zM778.581 529.088c-3.541 0-6.549 0-9.536 0-115.029 0-230.037 0.128-345.045-0.149-17.237-0.021-33.515 2.069-48.128 11.84-0.448 0.32-1.365-0.085-2.347-0.192 0-2.709 0-5.269 0-7.787 0-112.469 0-224.939 0-337.408 0-42.667 28.907-71.616 71.509-71.637 108.373-0.021 216.747 0 325.163 0 2.709 0 5.419 0 8.384 0 0 135.36 0 269.696 0 405.333zM670.229 772.267c-3.435 0-6.485 0-9.472 0-126.208 0-252.437 0.021-378.645 0-24.533-0.021-42.795-16.448-43.456-38.955-0.683-23.125 16.96-41.899 40.171-42.027 37.483-0.235 74.965-0.064 112.448-0.064 2.688 0 5.397 0 8.107 0-18.752-4.587-35.563-12.416-49.728-25.557-1.003-0.939-2.709-1.557-4.096-1.557-24.725 0.107-49.515-0.64-74.133 0.981-10.944 0.725-21.568 6.293-32.533 9.728-0.043-0.917-0.256-3.115-0.256-5.291-0.021-122.368-0.085-244.779 0-367.168 0.021-35.819 21.824-62.997 55.659-69.291 7.915-1.451 16.171-1.088 24.832-1.579 0-8.619 0-17.152 0-25.643-39.040-5.824-75.349 14.208-93.739 44.416-10.091 16.597-14.037 34.709-14.016 53.995 0.107 105.813 0.043 211.627 0.064 317.44 0 35.435-0.043 70.869 0 106.325 0.064 42.24 28.779 71.147 71.104 71.189 119.083 0.085 266.795 0.043 385.877 0.021 18.752-0.021 14.997-26.965 1.813-26.965zM788.757 582.976c1.771 0 3.627-0.171 5.333 0.213 6.699 1.365 10.944 5.291 11.541 12.352 0.576 6.805-3.52 12.459-10.368 14.016-2.688 0.597-5.547 0.576-8.341 0.576l-369.536-0.256c-1.771 0-3.627 0.171-5.333-0.213-6.72-1.344-10.965-5.269-11.563-12.331-0.576-6.805 3.52-12.459 10.368-14.016 2.688-0.597 5.547-0.576 8.341-0.576l369.557 0.235zM654.080 718.976c1.771 0 3.627-0.171 5.333 0.213 6.699 1.365 10.944 5.291 11.541 12.352 0.576 6.805-3.52 12.459-10.368 14.016-2.688 0.597-5.547 0.576-8.341 0.576l-369.536-0.256c-1.771 0-3.627 0.171-5.333-0.213-6.699-1.365-10.944-5.291-11.541-12.352-0.576-6.805 3.52-12.459 10.368-14.016 2.688-0.597 5.547-0.576 8.341-0.576l369.536 0.256z" />
<glyph unicode="&#xe91f;" glyph-name="ic_helpvalidador" d="M810.667 192h-597.333c-5.888 0-10.667 4.779-10.667 10.667s4.779 10.667 10.667 10.667h597.333c5.888 0 10.667-4.779 10.667-10.667s-4.779-10.667-10.667-10.667zM302.955 259.712c-25.877 0-53.397 1.259-81.749 4.011-5.547 0.533-9.749 5.205-9.643 10.773 0.107 5.589 4.501 10.304 10.069 10.624 2.261 0.107 221.461 13.547 276.16 184.213h-92.459c-4.203 0-8.021 2.24-9.749 6.080-1.728 3.861-1.003 8.213 1.792 11.371l192 214.165c2.155 2.368 5.227 3.883 8.469 3.499 3.2-0.149 6.165-1.771 8.085-4.373l156.437-214.208c2.347-3.243 2.709-7.317 0.896-10.901-1.813-3.605-5.483-5.632-9.493-5.632h-104.768c-8.725-42.667-61.248-209.621-346.048-209.621zM429.227 490.667h82.773c3.307 0 6.421-1.749 8.448-4.373 2.027-2.603 2.709-6.123 1.877-9.301-31.125-120.149-134.507-173.077-211.157-196.075 296.555 3.413 317.461 191.765 318.208 199.851 0.491 5.461 5.12 9.899 10.624 9.899h92.779l-136.299 186.624-167.253-186.624z" />
<glyph unicode="&#xe920;" glyph-name="ic_horario" d="M1016.917 761.557l-231.979 194.645-64.896-77.269 231.979-194.645 64.896 77.269zM303.979 879.189l-64.875 77.269-232.021-194.667 64.875-77.269 232.021 194.667zM537.259 646.443h-75.733v-302.955l239.595-144.149 38.101 62.357-201.963 119.659v265.088zM511.765 848.405c-251.2 0-454.187-203.477-454.187-454.421s202.987-454.443 454.187-454.443c251.179 0 454.677 203.499 454.677 454.443s-203.499 454.421-454.677 454.421zM512 40.533c-195.136 0-353.429 158.251-353.429 353.429 0 195.136 158.293 353.451 353.429 353.451 195.157 0 353.451-158.293 353.451-353.451 0-195.179-158.037-353.429-353.451-353.429z" />
<glyph unicode="&#xe921;" glyph-name="ic_income" d="M511.936 926.037c-52.139 0-94.592-42.411-94.592-94.741v-538.155l-145.408 145.579c-39.424 39.403-101.333 41.344-138.347 4.331-36.885-36.885-34.965-98.795 4.501-138.347l303.851-303.68c39.275-39.595 101.333-41.557 138.368-4.544 0.747 1.088 1.451 2.133 2.389 3.008 1.323 1.365 2.837 2.261 4.181 3.456l299.819 299.84c38.805 38.933 40.32 100.416 3.264 137.301-36.864 37.035-98.475 35.541-137.301-3.307l-146.005-146.027v540.544c0.021 52.331-42.24 94.741-94.72 94.741z" />
<glyph unicode="&#xe922;" glyph-name="ic_invest" d="M507.456-50.475c-274.88 0-498.496 223.616-498.496 498.475 0 274.88 223.616 498.475 498.496 498.475 274.859 0 498.475-223.595 498.475-498.475 0-274.859-223.616-498.475-498.475-498.475zM507.456 922.027c-261.355 0-474.027-212.629-474.027-474.027 0-261.355 212.672-474.005 474.027-474.005s474.005 212.651 474.005 474.005c0 261.397-212.651 474.027-474.005 474.027zM245.333 710.144v-496.811c0 0 6.656-32 41.067-32h499.072c0 0 21.141-1.323 21.141 17.877 0 0 3.285 24.789-21.141 24.789-4.331 0-8.661 0-12.992 0-99.84 0-199.637 0-299.477 0-46.827 0-93.653 0-140.459 0-17.792 0-41.515-7.019-41.685 14.485-0.171 24.192-2.837 50.005-2.837 73.749 0 27.947 0 55.872 0 83.819 13.611 13.312 27.221 26.603 40.832 39.915 9.472 9.259 19.115 18.411 28.139 27.989 9.259 9.771 21.696 23.083 36.8 19.029 15.68-4.224 27.328-13.589 38.699-24.64 11.797-11.456 26.219-22.912 37.995-34.347 0 0 20.416-27.947 46.592-1.749l240.256 244.288v-50.624c0 0-2.667-20.587 12.672-17.579 0 0 10.667 0 8.661 17.707v78.293c0 0 4.011 23.339-21.333 21.995l-74.667 0.107c0 0-18.005 2.219-18.325-11.456 0 0-3.008-13.333 16.427-11.669h41.877l-205.888-212.331c0 0-18.453-22.784-39.403-0.107l-66.176 60.736c0 0-21.888 18.389-41.088 0.939l-84.736-81.237c0 23.68 2.667 57.109 2.667 80.789 0 38.656 0 77.312 0 115.968 0 13.504-0.213 27.051 0 40.555 0.256 16.448 4.672 37.675-19.584 37.675-0.021 0.021-23.104 5.248-23.104-26.155z" />
<glyph unicode="&#xe923;" glyph-name="ic_load" d="M139.989 525.504c-30.016 13.376-59.307 26.112-88.256 39.573-5.355 2.496-9.323 8.043-13.909 12.181 4.523 4.331 8.363 9.984 13.696 12.736 70.528 36.331 141.227 72.384 212.011 108.203 21.376 10.816 30.443 6.763 36.565-15.659 20.693-75.968 41.344-151.936 61.653-228.011 1.707-6.379 0.427-13.504 0.533-20.309-7.211 0.853-15.061 0.149-21.504 2.795-28.373 11.755-56.341 24.448-84.544 36.843-18.837-56.448 6.72-150.187 63.573-206.677 63.957-63.595 179.541-101.696 299.563-32.32 22.421-31.616 44.885-63.36 67.371-95.040-86.144-65.259-236.693-88.469-366.251-20.373-119.723 62.997-223.808 216.043-180.501 406.059zM340.032 756.587c99.435 70.336 251.541 87.509 381.76 11.072 112.085-65.749 207.211-214.101 165.141-397.184 27.008-11.989 54.421-24.192 81.813-36.416 5.376-2.432 11.925-4.075 15.467-8.213 2.475-2.901 2.603-10.539 0.448-13.995-2.539-4.011-8.555-6.016-13.269-8.427-68.544-35.008-137.152-69.952-205.781-104.853-24.384-12.373-31.915-8.917-39.168 17.728-20.437 74.795-40.917 149.611-60.821 224.533-1.771 6.677 0.171 14.357 0.427 21.568 6.656-1.045 13.845-0.832 19.925-3.392 28.309-11.883 56.32-24.533 84.48-36.928 19.349 47.915-3.221 146.347-61.376 204.779-64.96 65.28-179.883 103.531-301.035 33.792-22.357 31.531-44.843 63.232-68.011 95.936z" />
<glyph unicode="&#xe924;" glyph-name="ic_look" d="M506.795 134.699c-200.661 9.792-357.824 103.275-469.312 275.648-15.787 24.405-16.171 50.667-0.683 75.157 89.344 141.333 214.464 233.173 379.2 266.027 238.080 47.509 460.053-84.949 569.173-260.629 18.325-29.483 17.749-57.621-1.131-86.464-96.491-147.328-230.421-237.376-405.333-264.256-21.803-3.328-44.117-3.456-71.915-5.483zM300.395 639.211c-5.76-2.453-8.683-3.435-11.349-4.885-78.080-42.752-139.947-102.848-188.501-176.917-2.944-4.523-2.304-15.339 1.152-19.477 29.675-35.712 57.173-74.027 91.307-104.96 120.64-109.44 261.717-153.536 422.571-116.715 133.76 30.592 232.811 112.235 309.013 223.595 2.944 4.309 1.792 14.635-1.472 19.563-47.147 71.595-107.157 129.899-182.165 172.16-4.331 2.475-9.045 4.352-11.733 5.589 7.851-28.864 19.328-57.323 22.592-86.656 3.264-29.525 2.752-61.013-4.117-89.728-6.869-28.693-20.224-57.472-37.248-81.6-17.067-24.256-39.787-46.123-64.128-63.296-83.541-58.859-201.109-53.205-281.856 9.301-74.965 58.005-132.288 175.36-64.064 314.027zM346.24 525.803c-0.469-20.992 9.109-33.493 26.005-34.005 16.853-0.512 26.197 9.557 27.435 30.507 3.861 64.619 55.616 107.157 108.48 108.203 20.459 0.405 31.424 11.627 31.019 27.584-0.427 16.619-13.355 26.624-34.069 26.283-81.984-1.301-157.12-76.309-158.869-158.571z" />
<glyph unicode="&#xe925;" glyph-name="ic_movement" d="M1019.328 449.92l-147.691 148.224v-119.787h-329.28v329.28h119.787l-148.224 147.691-152.064-147.691h119.787v-329.28h-329.28v119.787l-147.691-148.224 147.691-152.064v119.787h329.28v-329.28h-119.787l152.064-147.691 148.224 147.691h-119.787v329.28h329.28v-119.787z" />
<glyph unicode="&#xe926;" glyph-name="ic_outcome" d="M512-30.037c52.139 0 94.571 42.389 94.571 94.72v538.176l145.408-145.579c39.424-39.424 101.333-41.344 138.347-4.331 36.885 36.885 34.965 98.795-4.501 138.347l-303.829 303.68c-39.275 39.595-101.333 41.557-138.368 4.544-0.747-1.088-1.451-2.133-2.389-3.008-1.323-1.365-2.837-2.261-4.181-3.456l-299.819-299.819c-38.805-38.933-40.32-100.416-3.264-137.301 36.864-37.035 98.475-35.541 137.301 3.307l146.005 146.027v-540.587c-0.021-52.331 42.261-94.72 94.72-94.72z" />
<glyph unicode="&#xe927;" glyph-name="ic_phone-call" d="M201.685 953.771c8.085-9.045 17.067-17.429 24.064-27.243 47.531-66.539 88.811-136.811 124.757-210.24 9.493-19.435 9.259-20.715-6.976-35.2-21.099-18.859-43.392-36.48-64.021-55.829-34.752-32.619-33.045-29.611-18.859-73.152 26.688-81.835 70.997-153.813 127.445-218.453 44.331-50.816 94.677-94.229 155.904-123.797 30.123-14.571 61.525-24.811 95.125-27.755 17.6-1.579 32.683 1.771 45.76 15.168 19.947 20.523 40.619 40.405 61.824 59.627 21.077 19.157 22.869 19.328 47.531 5.888 70.891-38.635 138.965-81.728 203.093-130.859 4.16-3.2 8.128-6.72 11.947-10.389 10.219-9.792 10.965-12.416 0.213-22.187-21.675-19.669-43.307-39.573-66.688-57.109-38.656-29.013-78.891-55.957-118.016-84.395-20.288-14.741-42.304-17.152-66.411-14.827-66.304 6.336-127.403 28.736-185.877 59.115-86.592 44.992-162.539 104.619-233.323 171.221-86.677 81.536-164.352 170.688-226.752 272.491-44.8 73.024-80.768 149.867-99.243 234.112-2.667 12.16-4.715 24.448-7.040 36.715 0 5.269 0 10.517 0 15.787 11.136 15.744 21.632 32.021 33.536 47.125 48.427 61.291 96.085 123.307 156.139 174.187 1.941 0 3.904 0 5.867 0zM559.317 953.771c18.155-2.56 36.395-4.715 54.464-7.787 189.845-32.171 346.176-178.816 389.845-366.123 5.205-22.357 8.384-45.227 11.584-68.011 1.835-12.949 1.813-26.197 2.709-40.597-29.035-4.096-57.429-8.128-86.507-12.245-1.131 113.301-38.933 210.645-118.464 290.112-79.488 79.445-176.789 117.376-290.389 118.4 4.437 29.291 8.725 57.771 13.035 86.272 7.915-0.021 15.808-0.021 23.723-0.021zM492.245 651.115c4.203 29.653 8.171 57.643 12.117 85.589 157.141 21.845 315.563-117.056 296.896-296.107-28.032-3.989-56.299-8-86.165-12.224 9.472 65.173-6.037 122.731-52.651 169.493-46.699 46.869-104.107 62.891-170.197 53.248z" />
<glyph unicode="&#xe928;" glyph-name="ic_phone-circle" d="M354.88 704.085c4.053-4.587 8.619-8.811 12.16-13.781 24.085-33.685 44.971-69.269 63.189-106.453 4.821-9.835 4.693-10.475-3.541-17.835-10.688-9.557-21.952-18.453-32.405-28.267-17.6-16.533-16.768-14.976-9.557-37.056 13.504-41.387 35.968-77.845 64.491-110.635 22.464-25.685 47.957-47.68 78.955-62.656 15.253-7.403 31.168-12.565 48.171-14.059 8.917-0.811 16.555 0.917 23.168 7.68 10.112 10.368 20.587 20.437 31.317 30.187 10.667 9.707 11.584 9.792 24.043 2.965 35.947-19.541 70.4-41.344 102.891-66.24 2.091-1.6 4.075-3.392 5.995-5.227 5.163-4.971 5.568-6.315 0.107-11.264-10.944-9.941-21.909-20.032-33.771-28.885-19.563-14.699-39.936-28.373-59.755-42.752-10.261-7.509-21.44-8.661-33.621-7.531-33.579 3.221-64.491 14.549-94.144 29.931-43.84 22.805-82.261 52.992-118.123 86.677-43.904 41.301-83.221 86.464-114.816 138.027-22.677 36.949-40.917 75.883-50.24 118.549-1.344 6.144-2.389 12.352-3.563 18.56 0 2.688 0 5.333 0 8 5.632 7.979 10.944 16.213 16.981 23.851 24.491 31.040 48.64 62.443 79.061 88.213 1.003 0 2.005 0 3.008 0zM535.957 704.085c9.216-1.323 18.432-2.389 27.605-3.947 96.128-16.299 175.253-90.56 197.397-185.387 2.624-11.307 4.181-22.891 5.845-34.411 0.917-6.571 0.917-13.269 1.344-20.565-14.699-2.112-29.035-4.117-43.797-6.208-0.576 57.365-19.691 106.667-59.968 146.901-40.277 40.213-89.536 59.413-147.072 59.947 2.219 14.848 4.416 29.269 6.592 43.691 4.053-0.021 8.085-0.021 12.053-0.021zM501.973 550.827c2.155 14.997 4.139 29.205 6.165 43.328 79.552 11.072 159.765-59.243 150.336-149.909-14.208-2.027-28.523-4.032-43.627-6.208 4.779 33.003-3.072 62.165-26.645 85.824-23.659 23.723-52.715 31.851-86.229 26.965zM512.597-64.299c-281.835 0-511.125 229.269-511.125 511.104 0 281.792 229.291 511.104 511.125 511.104 281.813 0 511.104-229.291 511.104-511.104 0-281.835-229.291-511.104-511.104-511.104zM512.597 925.973c-264.213 0-479.168-214.955-479.168-479.147 0-264.235 214.955-479.168 479.168-479.168 264.171 0 479.168 214.933 479.168 479.168 0 264.192-214.997 479.147-479.168 479.147z" />
<glyph unicode="&#xe929;" glyph-name="ic_phone" d="M206.336 946.752c7.957-8.917 16.811-17.173 23.723-26.859 46.848-65.621 87.595-134.933 123.029-207.339 9.365-19.157 9.131-20.437-6.891-34.752-20.821-18.581-42.773-35.947-63.125-55.040-34.283-32.171-32.597-29.205-18.603-72.128 26.304-80.725 70.016-151.701 125.653-215.467 43.733-50.112 93.397-92.907 153.771-122.091 29.696-14.336 60.651-24.448 93.781-27.371 17.365-1.515 32.256 1.749 45.099 14.976 19.691 20.224 40.085 39.829 60.971 58.816 20.8 18.901 22.592 19.029 46.869 5.781 69.931-38.080 137.024-80.597 200.299-129.067 4.096-3.136 8.021-6.635 11.755-10.219 10.091-9.685 10.816-12.245 0.213-21.845-21.376-19.413-42.709-39.061-65.749-56.363-38.123-28.629-77.803-55.168-116.395-83.2-20.011-14.549-41.707-16.896-65.472-14.635-65.387 6.251-125.675 28.288-183.36 58.304-85.355 44.373-160.277 103.168-230.080 168.832-85.483 80.448-162.091 168.384-223.616 268.736-44.16 72.043-79.659 147.84-97.856 230.891-2.645 11.989-4.651 24.107-6.955 36.181 0 5.205 0 10.389 0 15.595 10.987 15.509 21.312 31.552 33.088 46.464 47.744 60.437 94.72 121.6 153.963 171.755 1.984 0.043 3.925 0.043 5.888 0.043z" />
<glyph unicode="&#xe92a;" glyph-name="ic_plus" d="M518.656-32.875c-265.899 0-482.219 216.32-482.219 482.219s216.32 482.219 482.219 482.219c265.877 0 482.24-216.32 482.24-482.219s-216.363-482.219-482.24-482.219zM518.656 901.419c-249.28 0-452.075-202.795-452.075-452.075 0-249.323 202.816-452.075 452.075-452.075 249.301 0 452.096 202.773 452.096 452.075 0 249.28-202.795 452.075-452.096 452.075zM766.357 448c0 9.728-4.779 21.333-27.477 21.333h-205.547v193.621c0 22.699-11.584 27.477-21.333 27.477-8.64 0-18.709-3.84-20.885-20.565-0.299-2.133-0.448-4.459-0.448-6.912v-193.621h-196.928c-22.699 0-27.456-11.605-27.456-21.333 0-8.64 3.84-18.709 20.565-20.885 2.112-0.299 4.416-0.448 6.891-0.448h196.928v-208.853c0-2.453 0.149-4.779 0.448-6.891 2.155-16.747 12.224-20.587 20.885-20.587 9.728 0 21.333 4.779 21.333 27.477v208.853h205.547c2.475 0 4.8 0.149 6.891 0.469 16.747 2.155 20.587 12.224 20.587 20.864z" />
<glyph unicode="&#xe92b;" glyph-name="ic_print" d="M324.907 198.549h311.808v-62.379h-311.808v62.379zM262.549 884.544h498.923v-124.736h62.357v124.736c0 34.411-27.904 62.379-62.357 62.379h-498.923c-34.432 0-62.357-27.968-62.357-62.379v-124.736h62.357v124.736zM324.907 323.264h374.165v-62.379h-374.165v62.379zM948.544 697.451h-873.088c-34.432 0-62.379-27.968-62.379-62.379v-374.187c0-34.453 27.947-62.357 62.379-62.357h124.736v-187.115c0-34.475 27.925-62.357 62.357-62.357h498.923c34.453 0 62.357 27.904 62.357 62.357v187.115h124.736c34.475 0 62.379 27.904 62.379 62.357v374.208c-0.021 34.411-27.925 62.357-62.4 62.357v0zM761.451 11.435h-498.901v374.208h498.923v-374.208zM886.187 510.379c-34.475 0-62.379 27.883-62.379 62.357 0 34.389 27.904 62.357 62.379 62.357 34.453 0 62.357-27.968 62.357-62.357 0-34.496-27.904-62.357-62.357-62.357v0z" />
<glyph unicode="&#xe92c;" glyph-name="ic_protect" d="M506.603-17.301c-27.051 8.533-54.72 15.467-81.003 25.92-84.501 33.621-158.656 82.795-218.24 152.256-41.813 48.747-71.104 103.957-79.701 168.213-3.392 25.365-3.051 51.371-3.115 77.035-0.299 122.069-0.128 244.117-0.128 366.165 0 18.517 6.976 25.557 25.387 24.448 46.976-2.816 93.76-1.749 140.437 4.885 78.912 11.221 145.685 46.443 202.923 101.035 4.117 3.925 8.917 7.083 13.419 10.603 3.627 0 7.275 0 10.901 0 4.267-3.307 8.896-6.251 12.736-10.005 69.739-67.947 153.792-102.464 250.581-106.304 32.021-1.259 64.149-0.192 96.192-0.021 14.955 0.064 22.613-6.955 22.613-21.931-0.064-138.411 0.341-276.8-0.512-415.189-0.341-56.256-19.392-107.371-49.451-154.411-44.949-70.336-107.221-121.835-179.115-162.539-47.061-26.667-96.725-47.040-149.781-58.667-1.131-0.256-2.176-0.96-3.243-1.493-3.627 0-7.275 0-10.901 0zM163.093 756.992c0-3.456 0-5.845 0-8.213 0-122.667 0.661-245.333-0.235-368.021-0.533-71.744 23.083-134.251 68.373-188.672 72.619-87.211 166.421-140.672 275.435-168.832 3.627-0.917 7.957-0.747 11.605 0.213 104.981 27.093 195.776 78.336 267.648 160.256 47.403 53.995 75.157 116.587 75.115 189.824-0.107 125.077-0.043 250.155-0.085 375.232 0 2.603-0.299 5.227-0.469 8.107-4.928 0-9.131-0.128-13.333 0-32.064 1.131-64.213 1.024-96.149 3.712-88.213 7.424-165.589 40.747-231.424 100.267-2.389 2.176-4.971 4.117-7.701 6.379-3.584-3.115-6.336-5.931-9.493-8.192-24.853-17.728-48.597-37.355-74.859-52.608-61.483-35.691-129.685-47.040-199.701-49.344-21.141-0.704-42.325-0.107-64.725-0.107zM687.147 538.88l-218.987-218.965c-1.941-1.92-5.056-1.92-6.976 0l-124.331 124.331c-1.941 1.92-1.941 5.056 0 6.976l30.229 30.208c1.92 1.941 5.035 1.941 6.976 0l90.645-90.645 185.301 185.301c1.92 1.92 5.035 1.92 6.976 0l30.187-30.229c1.92-1.899 1.92-5.035-0.021-6.976v0z" />
<glyph unicode="&#xe92d;" glyph-name="ic_question" d="M513.088 932.949c274.773-1.664 485.504-213.781 483.925-487.019-1.664-274.901-216.128-485.163-492.693-482.859-269.419 2.133-479.552 219.093-477.312 492.757 2.283 267.435 217.536 478.763 486.080 477.12zM961.216 447.851c-0.064 244.16-204.331 448.597-448.96 449.408-241.088 0.725-448.704-205.248-448.747-445.291-0.021-247.659 203.84-452.736 449.92-452.501 242.453 0.192 447.851 205.867 447.787 448.384zM696.619 598.080c-0.448-56-22.613-98.347-55.467-135.915-11.499-13.248-24-25.771-37.312-37.163-48.107-40.96-73.792-92.053-73.301-155.712 0.021-1.323-0.043-2.731-0.171-4.053-2.069-20.928-15.019-33.173-33.941-32.213-17.856 0.917-31.147 14.315-30.592 33.685 1.749 59.989 14.144 116.864 55.083 163.499 17.749 20.309 37.931 38.485 55.765 58.731 15.488 17.621 32.747 35.029 43.093 55.531 36.928 73.131-7.872 147.712-89.365 151.936-87.573 4.501-133.973-39.808-137.771-131.413-1.323-33.6-11.712-47.851-33.813-46.699-22.848 1.109-33.493 19.008-30.549 51.904 7.168 80.235 39.189 144.811 117.461 177.045 106.283 43.776 225.6-16.256 247.893-123.541 2.027-9.835 2.347-20.053 2.987-25.621zM529.984 173.312c-0.213-23.829-12.416-37.867-32.619-37.568-20.757 0.363-32.832 15.445-32.32 40.427 0.469 23.296 13.376 38.037 33.152 37.845 20.309-0.171 32.021-15.168 31.787-40.704z" />
<glyph unicode="&#xe92e;" glyph-name="ic_reject" d="M214.315-26.411c-11.904-12.011-31.339-12.011-43.371 0v0l-133.333 133.355c-12.032 11.989-12.032 31.403 0 43.285l772.288 772.181c11.925 12.032 31.339 12.032 43.243 0l133.248-133.269c12.032-11.904 12.032-31.317 0-43.307l-772.075-772.245zM986.389 150.293c12.032-11.883 12.032-31.317 0-43.349v0l-133.312-133.312c-12.011-12.011-31.445-12.011-43.328 0l-772.16 772.288c-12.011 11.904-12.011 31.317 0 43.221l133.269 133.248c11.904 12.032 31.317 12.032 43.307 0l772.224-772.096z" />
<glyph unicode="&#xe92f;" glyph-name="ic_relateduser" d="M448 356.693c12.203-21.931 21.013-46.421 36.928-64.661 41.493-47.616 115.285-34.624 139.819 23.019 3.819 8.96 3.52 19.755 4.608 29.76 1.237 11.392 7.061 14.123 16.96 9.856 32.085-13.931 63.637-29.099 96.256-41.579 36.864-14.101 58.603-42.091 66.944-77.717 11.883-50.731 20.203-102.485 26.347-154.219 5.419-45.589-1.088-51.392-45.632-65.621-97.813-31.232-197.824-49.387-300.416-39.317-56.213 5.547-111.659 19.669-167.232 31.061-18.816 3.883-37.867 9.451-54.912 18.091-9.024 4.587-19.52 17.195-19.797 26.475-2.197 74.432 7.915 147.029 40.085 215.424 9.707 20.629 25.216 32.811 45.803 41.173 39.275 15.851 78.037 32.875 114.24 48.256zM192.683 385.131c5.419 16.427 8.405 27.712 12.843 38.4 5.696 13.76 18.347 19.008 30.784 14.464 8.235-3.008 16.981-12.821 19.477-21.333 2.987-10.219 0.96-22.635-1.323-33.6-7.339-35.563-15.253-71.019-24.021-106.219-3.52-14.165-13.483-23.616-29.291-21.376-23.104 3.221-46.144 7.317-68.992 11.989-22.293 4.523-44.331 10.368-66.517 15.381-16.96 3.883-27.371 17.387-25.173 34.219 2.283 17.6 13.141 24.896 30.357 23.275 8.768-0.853 17.664-1.387 26.176-3.435 11.989-2.837 13.739 0.725 11.243 12.096-4.544 20.843-6.549 42.219-11.157 63.019-9.771 43.989-6.272 87.317-0.341 131.648 9.408 70.4 36.693 132.757 76.757 189.952 56.981 81.344 134.741 135.659 228.032 167.701 65.899 22.635 135.061 26.091 202.517 15.787 109.163-16.661 201.877-68.032 273.728-153.728 44.053-52.544 74.368-111.552 92.032-178.517 20.992-79.851 17.365-158.251-3.84-236.437-6.976-25.579-20.224-49.451-30.464-74.176-3.84-9.323-9.088-10.411-17.771-5.376-15.232 8.683-31.019 16.448-46.613 24.491-12.501 6.485-14.059 16.256-8.512 28.011 44.992 95.552 47.083 192.085 7.381 289.899-39.979 98.432-110.315 165.461-209.472 201.813-58.325 21.376-117.781 27.584-180.267 17.003-128-21.611-216.277-93.461-271.723-207.637-32.981-67.947-36.693-140.821-25.323-214.656 0.981-6.443 5.056-12.373 9.472-22.656zM519.68 722.048c7.147 0.277 14.336 0.128 21.611 0.128 44.117 0 84.117-14.357 117.632-44.224 25.28-22.549 32.128-54.315 30.635-87.68-1.472-33.899-1.045-67.264-10.048-100.8-8.939-33.237-25.6-66.859-42.965-96.597-19.115-32.811-50.645-51.392-87.68-58.475-22.891-4.331-43.093 6.272-60.821 19.136-45.504 33.131-69.888 83.733-81.707 137.856-2.965 13.525-2.624 27.904-3.136 41.707-1.28 32.853-1.792 65.963 3.307 98.539 4.011 25.344 18.261 47.040 37.675 63.381 18.261 15.424 34.709 20.949 57.813 25.259 5.909 1.067 11.776 1.579 17.685 1.771z" />
<glyph unicode="&#xe930;" glyph-name="ic_reload" d="M1014.208 397.376l-81.664 107.947c-11.051 14.592-27.221 22.955-44.416 22.955s-33.365-8.384-44.395-22.955l-81.685-107.947c-10.901-14.357-8.064-34.837 6.315-45.739 14.379-10.859 34.859-8.021 45.76 6.336l44.523 58.837c-15.957-203.669-186.795-364.523-394.496-364.523-218.197 0-395.712 177.515-395.712 395.712 0 218.176 177.515 395.691 395.691 395.691 44.949 0 89.024-7.467 131.029-22.187 17.003-5.952 35.627 3.008 41.579 20.011s-2.987 35.627-19.989 41.6c-48.96 17.152-100.309 25.856-152.619 25.856-254.187 0-460.971-206.784-460.971-460.971 0-254.208 206.784-460.971 460.971-460.971 241.109 0 439.552 186.048 459.328 422.101l38.699-51.136c6.421-8.469 16.171-12.907 26.048-12.907 6.869 0 13.781 2.155 19.691 6.592 14.379 10.859 17.216 31.339 6.315 45.696z" />
<glyph unicode="&#xe931;" glyph-name="ic_search" d="M651.285 249.771c-196.331-138.539-431.552-77.269-546.667 81.749-116.523 160.875-92.885 379.627 56.341 515.669 142.635 129.984 366.997 129.195 513.003-0.597 144.981-128.811 186.325-369.131 28.011-550.613 4.544-4.907 9.045-10.155 13.888-14.997 86.336-86.357 172.928-172.48 258.645-259.477 9.195-9.237 17.472-23.467 18.475-36.032 2.219-26.347-27.669-42.496-50.517-28.8-6.997 4.288-13.013 10.603-18.901 16.469-86.443 86.272-172.8 172.629-259.008 259.136-4.949 4.992-8.533 11.307-13.269 17.493zM101.547 559.723c-0.491-173.504 140.267-316.565 311.872-317.035 177.131-0.448 319.381 139.755 319.765 315.243 0.299 172.885-141.781 315.584-315.115 316.373-173.056 0.853-316.075-141.205-316.523-314.581z" />
<glyph unicode="&#xe932;" glyph-name="ic_service-light" d="M519.787-49.6c-270.272 0-490.176 219.904-490.176 490.176s219.904 490.155 490.176 490.155c270.272 0 490.176-219.904 490.176-490.176s-219.904-490.155-490.176-490.155zM519.787 900.096c-253.397 0-459.541-206.144-459.541-459.541s206.144-459.541 459.541-459.541c253.376 0 459.541 206.144 459.541 459.541s-206.165 459.541-459.541 459.541zM654.592 691.691c-40.491 40.405-91.755 53.781-147.755 51.115-117.504-5.568-192.128-101.184-169.131-216.448 7.467-37.461 25.792-74.027 44.949-106.368 21.696-36.651 44.651-78.656 46.336-121.323 14.763 0 28.459 0 43.541 0h91.221c17.963 0 31.595 0 46.080 0 1.643 42.667 20.331 75.669 38.528 108.587 16.704 30.315 35.413 62.379 46.059 94.912 22.635 68.992 13.589 136.192-39.829 189.525zM497.707 394.283c-0.811 0.32-1.621 0.256-2.432 0.576 8.96 31.488 17.941 53.141 27.392 95.808-21.461 0-41.109 0-63.744 0 34.901 42.667 68.181 97.173 101.461 143.509 0.853-0.32 1.685-3.2 2.496-3.541-8.747-30.933-17.493-54.635-26.816-97.301 19.136 0 36.843 0 58.688 0-33.707-42.667-65.387-92.48-97.045-139.051zM520.085 249.771c-20.395 0-40.768 0.192-61.141-0.128-11.392-0.149-19.733 3.968-20.011 16-0.277 11.989 8.107 16.981 19.285 17.024 40.768 0.128 81.536 0.128 122.283-0.043 11.051-0.021 19.328-4.395 19.115-16.981-0.277-12.587-8.64-16.043-19.84-15.957-19.861 0.192-39.787 0.043-59.691 0.085zM518.656 195.093c-18.965 0-37.909 0.085-56.896-0.043-11.264-0.021-19.691 4.459-19.861 16.363-0.171 11.819 7.744 16.789 19.285 16.747 38.848-0.107 77.696-0.043 116.523-0.043 11.392 0 19.179-4.565 19.008-16.853-0.235-12.544-8.832-16.128-19.84-16.171-19.371 0-38.805 0-58.219 0zM460.672 174.251c39.829 0 77.781 0 116.032 0-29.589-41.28-73.195-54.933-116.032 0z" />
<glyph unicode="&#xe933;" glyph-name="ic_service-more" d="M508.8-30.912c-268.992 0-487.851 218.859-487.851 487.851 0 269.013 218.859 487.851 487.851 487.851s487.851-218.837 487.851-487.851c0-268.992-218.859-487.851-487.851-487.851zM508.8 914.304c-252.203 0-457.387-205.184-457.387-457.365 0-252.203 205.184-457.365 457.365-457.365 252.203 0 457.365 205.163 457.365 457.365 0.021 252.181-205.141 457.365-457.344 457.365zM327.787 456.939c0-50.133-40.641-90.773-90.773-90.773s-90.773 40.641-90.773 90.773c0 50.133 40.641 90.773 90.773 90.773s90.773-40.641 90.773-90.773zM599.595 456.939c0-50.145-40.65-90.795-90.795-90.795s-90.795 40.65-90.795 90.795c0 50.145 40.65 90.795 90.795 90.795s90.795-40.65 90.795-90.795zM871.339 456.939c0-50.133-40.641-90.773-90.773-90.773s-90.773 40.641-90.773 90.773c0 50.133 40.641 90.773 90.773 90.773s90.773-40.641 90.773-90.773z" />
<glyph unicode="&#xe934;" glyph-name="ic_service-phone" d="M370.176 683.093c3.883-4.331 8.192-8.363 11.563-13.077 22.827-31.957 42.667-65.728 59.925-100.992 4.565-9.344 4.437-9.963-3.349-16.917-10.155-9.067-20.843-17.515-30.763-26.816-16.683-15.659-15.872-14.208-9.045-35.115 12.821-39.317 34.091-73.899 61.205-104.939 21.312-24.427 45.483-45.291 74.901-59.477 14.485-6.997 29.547-11.925 45.717-13.333 8.448-0.725 15.68 0.853 21.973 7.296 9.579 9.835 19.477 19.392 29.717 28.651 10.091 9.216 10.987 9.28 22.805 2.837 34.091-18.56 66.752-39.296 97.557-62.891 2.005-1.493 3.925-3.2 5.739-4.928 4.907-4.757 5.248-5.995 0.107-10.667-10.411-9.451-20.821-19.051-32.021-27.456-18.581-13.931-37.931-26.901-56.725-40.533-9.728-7.104-20.309-8.213-31.872-7.104-31.851 3.051-61.227 13.781-89.323 28.373-41.6 21.653-78.101 50.283-112.064 82.24-41.664 39.211-78.976 82.027-108.928 130.901-21.504 35.115-38.805 72-47.68 112.469-1.28 5.845-2.261 11.755-3.392 17.643 0 2.539 0 5.035 0 7.573 5.355 7.552 10.389 15.381 16.128 22.635 23.253 29.44 46.144 59.221 74.987 83.669 0.96-0.043 1.899-0.043 2.837-0.043zM541.973 683.093c8.704-1.216 17.472-2.261 26.197-3.712 91.179-15.467 166.293-85.909 187.264-175.893 2.496-10.731 4.011-21.739 5.547-32.661 0.875-6.229 0.875-12.565 1.323-19.52-13.973-1.963-27.605-3.883-41.579-5.867-0.512 54.421-18.688 101.184-56.896 139.371-38.187 38.165-84.907 56.363-139.499 56.853 2.133 14.080 4.203 27.776 6.251 41.429 3.819 0 7.616 0 11.392 0zM509.76 537.728c2.027 14.251 3.947 27.691 5.824 41.131 75.52 10.496 151.595-56.256 142.635-142.251-13.483-1.92-27.029-3.84-41.365-5.888 4.523 31.296-2.923 58.987-25.301 81.429-22.421 22.507-50.027 30.187-81.792 25.579zM519.253-44.757c-267.371 0-484.907 217.557-484.907 484.907 0 267.371 217.536 484.885 484.885 484.885 267.392 0 484.885-217.536 484.885-484.885 0.021-267.349-217.472-484.907-484.864-484.907zM519.253 894.741c-250.667 0-454.592-203.947-454.592-454.592 0-250.688 203.947-454.613 454.592-454.613 250.688 0 454.613 203.925 454.613 454.613-0.021 250.645-203.925 454.592-454.613 454.592z" />
<glyph unicode="&#xe935;" glyph-name="ic_service-tag" d="M506.603-24.341c-264.043 0-478.848 214.805-478.848 478.848 0 264.021 214.805 478.848 478.848 478.848s478.848-214.827 478.848-478.848c0-264.021-214.805-478.848-478.848-478.848zM506.603 903.467c-247.552 0-448.939-201.387-448.939-448.939s201.387-448.939 448.939-448.939c247.552 0 448.939 201.365 448.939 448.939 0 247.531-201.365 448.939-448.939 448.939zM562.389 262.549c0 8.939 0.405 16.64-0.085 24.299-1.237 18.923-3.115 37.803-4.267 56.725-0.619 9.984-4.8 15.232-15.275 15.168-24.341-0.192-48.683-0.107-73.024-0.043-7.552 0-13.333-2.731-14.037-10.773-2.261-25.067-4.16-50.176-5.931-75.221-0.192-3.072 1.387-6.208 2.368-10.155-9.685 0-19.115 0-28.565 0-56.939 0-113.899 0.213-170.816-0.192-11.563-0.107-18.069 4.885-17.813 15.424 0.32 12.117 1.131 25.067 5.504 36.203 41.152 105.003 83.136 209.664 124.779 314.475 5.056 12.715 13.675 18.453 27.541 18.219 29.269-0.491 58.56-0.149 85.867-0.149-1.963-22.997-4.245-45.611-5.355-68.309-0.128-2.709 6.123-8 9.643-8.235 15.616-0.896 31.381-0.981 46.997 0.021 3.712 0.256 10.176 6.059 10.069 9.152-0.661 19.733-2.667 39.467-4.587 59.157-0.256 2.56-0.789 5.013-1.536 8.149 32.043 0 60.629 0.235 91.968-0.128 11.84-0.149 17.984-8 22.144-18.475 27.008-68.117 54.208-136.149 81.387-204.181 13.867-34.795 28.459-69.355 41.323-104.491 4.736-12.864 6.485-27.115 7.552-40.875 0.64-8.533-3.819-15.893-14.763-15.851-67.264 0.149-134.485 0.085-201.088 0.085zM505.557 416.235c11.115 0 22.272 0.277 33.365-0.064 8.768-0.299 13.099 2.731 12.373 12.181-2.283 29.952-4.245 59.947-6.379 89.941-0.576 8.213-4.651 12.821-13.376 12.757-16.469-0.107-32.939-0.085-49.429 0-8.427 0.043-13.035-3.52-13.675-12.267-2.176-30.4-4.459-60.779-6.848-91.136-0.704-8.896 3.733-11.648 11.84-11.456 10.731 0.256 21.419 0.043 32.128 0.043z" />
<glyph unicode="&#xe936;" glyph-name="ic_service-water" d="M519.253-37.547c-265.451 0-481.451 216-481.451 481.451 0 265.472 216 481.451 481.451 481.451 265.493 0 481.451-215.979 481.451-481.451 0-265.451-215.957-481.451-481.451-481.451zM519.253 895.275c-248.875 0-451.371-202.496-451.371-451.371 0-248.896 202.496-451.349 451.371-451.349 248.896 0 451.349 202.453 451.349 451.349s-202.453 451.371-451.349 451.371zM521.515 710.464c15.893-47.232 45.44-86.421 70.507-128.192 28.928-48.299 58.816-96.235 84.288-146.368 19.541-38.528 25.323-81.131 15.637-124.437-17.301-77.397-81.6-129.664-164.437-133.845-102.592-5.163-186.24 75.413-182.613 177.28 1.749 49.28 21.461 93.227 46.72 134.528 29.973 48.981 61.781 96.832 91.392 146.005 14.379 23.808 25.579 49.536 38.507 75.029zM493.141 221.248c14.4-0.811 24.085 1.536 24.917 14.485 0.789 11.989-7.701 16.576-18.261 16.576-42.795-0.021-83.925 37.867-84.416 84.672-0.107 10.667-4.779 18.773-16.853 17.941-12.117-0.853-14.763-9.771-14.464-20.203 1.707-58.965 53.269-111.061 109.077-113.472z" />
<glyph unicode="&#xe937;" glyph-name="ic_shop" d="M1019.2 804.693c-12.971-78.165-25.408-152.939-37.845-227.733-2.581-15.637-4.757-31.317-7.808-46.869-13.781-70.251-66.88-113.899-138.453-113.92-157.291-0.043-314.603 0-471.893 0-7.893 0-15.744 0-25.792 0 3.989-23.829 6.891-46.443 12.16-68.459 1.067-4.352 11.328-9.152 17.387-9.344 42.923-0.768 85.931-0.384 128.875-0.384 156.608-0.021 313.28-0.021 469.888-0.021 7.787 0 15.573 0 24.96 0 0-22.72 2.133-43.989-0.576-64.555-3.072-23.424-18.005-39.403-41.984-44.48-9.557-2.005-19.648-2.453-29.483-2.453-207.509-0.128-415.061-0.107-622.571-0.107-33.963 0-40.683 6.293-46.464 40.149-30.549 179.584-61.333 359.083-92.139 538.603-0.64 3.755-2.432 7.339-4.053 12.032-49.067 0-97.835 0-147.712 0 0 24.576-2.432 48.256 0.704 71.189 2.987 21.909 24.107 39.168 46.357 39.509 64.661 1.003 129.344 0.363 195.925 0.363 7.232-40.896 14.443-81.472 21.909-123.52 249.365 0 497.643 0 748.608 0zM784 158.869c52.885-0.192 95.659-42.923 95.659-95.488 0.043-53.269-43.883-96.448-97.472-95.787-52.523 0.619-95.573 44.544-94.848 96.661 0.768 52.885 43.605 94.805 96.661 94.613zM450.667-32.213c-52.928 0.064-95.147 42.795-94.933 96.043 0.192 53.099 42.667 95.125 96 94.933 52.629-0.171 95.509-43.285 95.36-95.979-0.149-52.544-43.328-95.083-96.427-94.997z" />
<glyph unicode="&#xe938;" glyph-name="ic_simple-back" d="M795.883 24.021l-436.459 423.936 436.459 423.936-63.765 65.579-503.979-489.515 503.979-489.429z" />
<glyph unicode="&#xe939;" glyph-name="ic_simple-right" d="M228.117 871.979l436.459-423.936-436.459-423.915 63.765-65.6 504 489.515-504 489.429z" />
<glyph unicode="&#xe93a;" glyph-name="ic_star-select" d="M806.485-31.893c-5.611 0-11.2 1.792-15.957 5.291l-278.549 203.925-278.464-203.925c-9.344-6.869-22.016-6.976-31.488-0.341-9.472 6.656-13.717 18.603-10.453 29.696l96.789 331.669-270.037 222.699c-8.789 7.232-12.096 19.285-8.235 30.016 3.861 10.709 14.059 17.899 25.451 17.899h338.432l112.64 306.837c7.765 21.333 42.944 21.333 50.752 0l112.661-306.837h338.411c11.413 0 21.568-7.189 25.408-17.899 3.925-10.731 0.576-22.72-8.235-30.016l-269.888-222.699 96.683-331.669c3.264-11.093-0.896-23.019-10.411-29.696-4.651-3.264-10.133-4.949-15.509-4.949z" />
<glyph unicode="&#xe93b;" glyph-name="ic_star-unselect" d="M806.485-31.829c-5.611 0-11.2 1.728-15.957 5.227l-278.549 203.925-278.464-203.925c-9.344-6.869-22.016-6.976-31.488-0.341-9.472 6.656-13.717 18.603-10.453 29.696l96.789 331.669-270.037 222.677c-8.789 7.232-12.096 19.285-8.235 29.952 3.861 10.773 14.059 17.963 25.451 17.963h338.432l112.64 306.837c7.765 21.333 42.944 21.333 50.752 0l112.661-306.837h338.411c11.413 0 21.568-7.168 25.408-17.963 3.925-10.667 0.576-22.656-8.235-29.952l-269.888-222.677 96.683-331.669c3.264-11.093-0.896-23.019-10.411-29.696-4.651-3.264-10.133-4.885-15.509-4.885zM511.979 237.888c5.611 0 11.264-1.728 16-5.227l230.208-168.512-79.36 272.235c-3.072 10.347 0.384 21.568 8.704 28.416l225.643 186.133h-282.048c-11.349 0-21.504 7.083-25.408 17.749l-93.739 255.36-93.717-255.381c-3.904-10.667-14.059-17.749-25.344-17.749h-282.091l225.664-186.112c8.341-6.848 11.755-18.069 8.747-28.416l-79.445-272.235 230.229 168.512c4.757 3.499 10.347 5.227 15.957 5.227z" />
<glyph unicode="&#xe93c;" glyph-name="ic_sucursales" d="M828.501 704.981c-25.899 61.141-69.035 113.067-123.371 149.781-54.272 36.736-120 58.261-190.293 58.24-46.869 0-91.712-9.557-132.459-26.795-61.12-25.92-113.067-69.099-149.781-123.392-36.757-54.293-58.24-119.979-58.24-190.293 0-31.381 5.44-63.381 14.379-95.659 15.744-56.427 42.368-113.792 73.237-168.917 46.315-82.539 102.379-159.765 146.965-216.811 44.651-56.96 77.803-93.589 78.229-94.059l27.691-30.549 27.691 30.549c0.683 0.747 77.333 85.312 154.688 198.165 38.677 56.491 77.611 120.085 107.328 184.576 14.869 32.256 27.435 64.789 36.395 97.045 8.96 32.299 14.4 64.277 14.4 95.659-0.021 46.869-9.579 91.733-26.859 132.459zM642.197 520.789c-16.576-24.448-39.936-43.904-67.563-55.637-18.389-7.787-38.656-12.096-59.797-12.075-31.68-0.021-61.44 9.728-85.888 26.283-24.491 16.576-43.947 39.936-55.616 67.541-7.808 18.389-12.139 38.699-12.139 59.797-0.021 31.659 9.728 61.419 26.304 85.888 16.555 24.491 39.936 43.925 67.563 55.637 18.389 7.787 38.677 12.117 59.797 12.117 31.68 0 61.419-9.749 85.909-26.304 24.491-16.576 43.904-39.957 55.616-67.563 7.787-18.411 12.096-38.699 12.096-59.797 0-31.659-9.749-61.397-26.283-85.888zM545.451 679.403c-9.408 3.989-19.669 6.187-30.635 6.187-16.384 0-31.381-4.928-44.011-13.44-12.629-8.555-22.741-20.672-28.693-34.773-3.989-9.451-6.187-19.691-6.208-30.656 0.021-16.384 4.949-31.381 13.504-44.032 8.533-12.608 20.672-22.699 34.773-28.693 9.408-3.968 19.669-6.187 30.635-6.187 16.427 0.021 31.381 4.928 44.011 13.504 12.651 8.512 22.72 20.672 28.693 34.773 3.989 9.429 6.187 19.669 6.187 30.656-0.021 16.405-4.928 31.36-13.504 44.011-8.469 12.587-20.651 22.677-34.752 28.651z" />
<glyph unicode="&#xe93d;" glyph-name="ic_transmitir" d="M618.325 445.803c0-54.421-44.117-98.539-98.539-98.539s-98.539 44.117-98.539 98.539c0 54.421 44.117 98.539 98.539 98.539s98.539-44.117 98.539-98.539zM741.845 197.44c-3.541 0-7.083 1.344-9.792 4.053-5.44 5.419-5.44 14.208 0 19.627 123.115 123.115 123.115 323.477 0.021 446.613-5.419 5.419-5.419 14.229 0 19.627s14.208 5.397 19.627 0c133.931-133.952 133.931-351.893-0.043-485.845-2.709-2.731-6.251-4.075-9.813-4.075zM647.531 289.067c-3.584 0-7.125 1.344-9.835 4.053-5.397 5.419-5.397 14.208 0 19.627 35.2 35.2 54.613 81.984 54.613 131.691s-19.371 96.469-54.592 131.669c-5.419 5.419-5.419 14.208 0 19.627s14.208 5.419 19.627 0c40.448-40.448 62.699-94.187 62.699-151.296 0-57.131-22.272-110.869-62.699-151.317-2.709-2.709-6.293-4.053-9.813-4.053zM808.448 22.549c-3.563 0-7.104 1.344-9.813 4.053-5.419 5.419-5.419 14.208 0 19.627 106.453 106.453 165.077 247.872 165.099 398.208 0 150.336-58.624 291.755-165.056 398.208-5.419 5.419-5.419 14.208 0 19.627 5.44 5.397 14.208 5.397 19.627-0.021 111.68-111.68 173.184-260.053 173.184-417.813-0.021-157.739-61.525-306.133-173.227-417.813-2.709-2.731-6.272-4.075-9.813-4.075zM292.139 691.413c3.563 0 7.104-1.344 9.813-4.053 5.419-5.419 5.419-14.208 0-19.627-123.136-123.136-123.157-323.477-0.021-446.613 5.419-5.419 5.419-14.208 0-19.627s-14.208-5.419-19.605 0c-133.931 133.931-133.931 351.915 0.021 485.845 2.688 2.731 6.229 4.075 9.792 4.075zM386.496 599.787c3.563 0 7.104-1.344 9.813-4.075 5.419-5.419 5.419-14.208 0-19.605-35.221-35.2-54.613-81.963-54.613-131.691 0-49.707 19.392-96.469 54.613-131.669 5.419-5.419 5.419-14.229 0-19.627-5.419-5.419-14.229-5.419-19.627-0.021-40.448 40.448-62.72 94.187-62.72 151.317s22.293 110.848 62.741 151.296c2.688 2.731 6.229 4.075 9.792 4.075zM225.536 866.304c3.563 0 7.104-1.344 9.813-4.053 5.419-5.419 5.419-14.208 0-19.605-106.453-106.453-165.077-247.872-165.099-398.208 0-150.315 58.624-291.733 165.056-398.208 5.419-5.419 5.419-14.208 0-19.627s-14.208-5.419-19.627 0c-111.68 111.68-173.184 260.075-173.184 417.813 0 157.76 61.525 306.133 173.227 417.813 2.709 2.709 6.251 4.075 9.813 4.075z" />
</font>
</defs>
</svg>
